<svg width="86" height="18" viewBox="0 0 86 18" fill="none" xmlns="http://www.w3.org/2000/svg">
<g clip-path="url(#clip0_1_19460)">
<path d="M19.3888 9.88603C19.3888 12.0955 19.3679 14.3153 19.3992 16.5248C19.3992 17.1501 19.222 17.4106 18.5654 17.3794C16.4185 17.296 16.6687 17.8275 16.627 15.4305C16.6165 14.5446 16.5957 13.6588 16.6165 12.7729C16.6165 12.1893 16.4498 12.0121 15.8662 12.2518C15.22 12.5228 14.5426 12.7104 13.886 12.9396C13.4274 13.096 13.1877 13.3669 13.2086 13.9297C13.2607 14.8885 13.2086 15.8578 13.2086 16.8166C13.2086 17.2126 13.0627 17.3481 12.6562 17.3794C10.6135 17.5357 10.6239 17.5461 10.6239 15.4826C10.6239 11.762 10.6135 8.04135 10.6135 4.31031C10.6135 3.04925 10.6656 1.79862 11.7287 0.881496C11.8642 0.766855 12.0101 0.600105 12.1664 0.579261C13.8964 0.318713 15.6473 0.277025 17.3669 0.568839C18.6488 0.787699 19.3054 1.70483 19.3367 3.01799C19.3784 5.31081 19.3471 7.60363 19.3471 9.88603C19.3679 9.88603 19.3784 9.88603 19.3992 9.88603H19.3888ZM13.2398 6.88452C13.2398 6.88452 13.219 6.88452 13.2086 6.88452C13.2086 7.84333 13.2398 8.81257 13.1982 9.77139C13.1773 10.3237 13.3753 10.5009 13.886 10.355C14.5843 10.157 15.2617 9.90687 15.9704 9.76097C16.4811 9.64633 16.6478 9.38578 16.6374 8.89595C16.6165 7.5411 16.6165 6.19667 16.627 4.84182C16.627 2.78871 16.3873 2.56985 14.3341 2.72617C13.5942 2.77828 13.2398 3.13263 13.2398 3.85174C13.2398 4.86267 13.2398 5.88401 13.2398 6.89494V6.88452Z" fill="#174AE5"/>
<path d="M55.0213 9.29176C55.063 7.44708 54.9692 5.1751 55.0943 2.91355C55.1777 1.54828 56.1052 0.526929 57.4705 0.47482C58.7211 0.42271 59.9717 0.42271 61.2224 0.464398C62.546 0.506086 63.4527 1.36068 63.6507 2.67384C63.7132 3.11156 63.7549 3.54928 63.7549 3.99743C63.7549 8.13493 63.7549 12.2828 63.7757 16.4203C63.7757 17.1811 63.536 17.4209 62.7857 17.3792C60.9514 17.2958 61.0244 17.7544 61.0452 15.6179C61.0556 14.6069 61.0348 13.5856 61.0452 12.5747C61.0452 12.1578 60.9618 12.0015 60.5137 12.1682C59.7112 12.46 58.8879 12.7206 58.0645 12.9707C57.6893 13.0853 57.606 13.3146 57.6164 13.669C57.6268 14.6278 57.5955 15.597 57.6164 16.5558C57.6268 17.1395 57.4601 17.3896 56.8139 17.3792C55.0005 17.3583 55.0005 17.3792 55.0005 15.5658C55.0005 13.6169 55.0005 11.6575 55.0005 9.29176H55.0213ZM57.6268 6.94683C57.6268 8.00986 57.6268 9.0729 57.6268 10.1464C57.6268 10.3861 57.533 10.7091 58.0124 10.5424C58.867 10.2402 59.732 9.96918 60.5866 9.70864C60.8889 9.61484 61.0556 9.47935 61.0556 9.11459C61.0348 7.29075 61.0348 5.47734 61.0348 3.6535C61.0348 3.09072 60.7951 2.76764 60.2114 2.7468C59.6695 2.73638 59.1171 2.72595 58.5752 2.72595C57.8874 2.72595 57.606 3.09072 57.606 3.75772C57.6164 4.82076 57.606 5.88379 57.606 6.95725L57.6268 6.94683Z" fill="#FF6D1D"/>
<path d="M85.9857 9.03121C85.9857 10.8029 86.0066 12.5747 85.9857 14.3464C85.9544 16.6392 84.9748 17.598 82.682 17.6293C81.7961 17.6397 80.9102 17.6501 80.0244 17.6293C78.2005 17.5876 77.1583 16.7017 77.075 14.8883C76.9603 12.3662 77.002 9.84412 77.002 7.3116C77.002 5.98801 76.9812 4.65401 77.0958 3.33043C77.273 1.30857 78.0963 0.589463 80.1182 0.526931C81.1083 0.495665 82.0983 0.474821 83.0884 0.516509C84.9644 0.589463 85.9649 1.61081 85.9857 3.48675C86.017 5.33143 85.9857 7.18653 85.9857 9.03121ZM79.7117 9.03121C79.7117 10.3548 79.7117 11.6888 79.7117 13.0124C79.7117 15.4198 79.4929 15.3469 82.2338 15.3156C82.9634 15.3156 83.3281 14.9613 83.3281 14.2109C83.3281 10.7508 83.3281 7.29075 83.3281 3.82026C83.3281 3.13241 82.9529 2.8406 82.3172 2.80933C81.8586 2.78849 81.4001 2.88228 80.9415 2.89271C79.8576 2.91355 79.7221 2.97608 79.7117 4.03912C79.7117 5.70662 79.7117 7.37413 79.7117 9.04163V9.03121Z" fill="#FF6D1D"/>
<path d="M32.5304 9.01111C32.5304 6.45774 32.5409 3.91479 32.52 1.36143C32.52 0.736111 32.7806 0.538094 33.3433 0.496407C35.3444 0.371344 35.3339 0.360922 35.3235 2.35151C35.3235 4.85277 35.3235 7.3436 35.3131 9.84486C35.3131 10.5119 35.5215 10.6057 36.1156 10.3555C36.7826 10.0741 37.4808 9.86571 38.1687 9.63643C38.6273 9.4801 38.794 9.18828 38.794 8.69845C38.7627 6.30141 38.7627 3.91479 38.7523 1.51775C38.7523 0.631891 38.867 0.51725 39.7945 0.485985C41.4724 0.433875 41.4724 0.444297 41.4724 1.95547C41.4724 6.68702 41.462 11.429 41.4516 16.1605C41.4516 17.3591 41.4516 17.3799 40.2739 17.3591C38.5439 17.3278 38.8044 17.6405 38.7627 15.8062C38.7419 14.7953 38.7627 13.7739 38.7627 12.763C38.7627 12.2315 38.596 12.0647 38.0541 12.2419C37.3141 12.4712 36.5741 12.69 35.8446 12.9506C35.4486 13.0861 35.3339 13.2945 35.3339 13.6905C35.3444 14.6806 35.3027 15.6707 35.3235 16.6504C35.3235 17.1298 35.188 17.3382 34.6669 17.3695C32.5409 17.4945 32.5409 17.505 32.5409 15.4102C32.5409 13.2737 32.5409 11.1372 32.5409 9.01111H32.5304Z" fill="#174AE5"/>
<path d="M66.3293 9.08343C66.3293 6.56133 66.3501 4.0288 66.3188 1.5067C66.3188 0.870964 66.496 0.63126 67.1526 0.641682C68.7159 0.683369 70.2792 0.641682 71.8425 0.662526C73.9164 0.683369 74.9378 1.64219 74.9899 3.70572C75.042 5.70673 75.0003 7.71816 74.9899 9.71917C74.9899 10.9073 74.646 11.939 73.4683 12.481C73.0618 12.6686 73.2911 12.8979 73.3849 13.1063C73.9685 14.3257 74.5626 15.545 75.1671 16.754C75.438 17.2959 75.3234 17.4731 74.7085 17.4939C72.9055 17.546 72.6866 17.4418 71.9154 15.7743C71.5923 15.0865 71.2797 14.409 70.9566 13.7212C70.7065 13.1897 69.6539 12.8562 69.1536 13.148C68.9243 13.2835 68.9973 13.5127 68.9973 13.7108C68.9973 14.7008 68.9869 15.6909 69.0077 16.681C69.0181 17.2751 68.8097 17.5148 68.1844 17.5043C66.3188 17.4835 66.3188 17.5043 66.3188 15.6492C66.3188 13.4606 66.3188 11.272 66.3188 9.08343H66.3293ZM69.0702 6.90525C69.0702 8.0204 69.0807 9.13554 69.0702 10.2507C69.0702 10.6467 69.1536 10.8135 69.5809 10.7926C70.175 10.7614 70.7794 10.7822 71.3735 10.7926C71.9779 10.7926 72.3114 10.5217 72.3114 9.90676C72.3114 7.88491 72.3114 5.85264 72.3114 3.83079C72.3114 3.25758 72.0196 2.97619 71.436 2.98661C70.842 2.98661 70.2375 3.00746 69.6434 2.98661C69.1953 2.96577 69.0598 3.1221 69.0702 3.57024C69.1015 4.68538 69.0702 5.80053 69.0702 6.91567V6.90525Z" fill="#FF6D1D"/>
<path d="M43.8812 9.03081C43.8812 6.52955 43.902 4.02829 43.8707 1.52703C43.8707 0.828764 44.1104 0.620326 44.7774 0.64117C46.9139 0.69328 46.5387 0.391044 46.57 2.40247C46.5909 3.93449 46.57 5.47694 46.5804 7.00896C46.5804 7.26951 46.4137 7.63427 46.8201 7.73849C47.2474 7.85313 47.508 7.58216 47.6747 7.22782C48.3209 5.83128 48.967 4.44517 49.6132 3.04863C49.8842 2.45458 50.1864 1.88138 50.4365 1.27691C50.6346 0.787077 50.9681 0.609904 51.4683 0.64117C51.8018 0.662014 52.1457 0.64117 52.4792 0.64117C53.4797 0.64117 53.5214 0.714123 53.1046 1.57914C52.0728 3.70521 51.0514 5.85213 49.978 7.95735C49.6653 8.58267 49.6445 9.08292 49.9676 9.70823C51.1348 12.0219 52.2604 14.3564 53.3859 16.6805C53.7403 17.41 53.6986 17.483 52.8961 17.4726C50.5824 17.4413 51.0097 17.8373 50.0092 15.6904C49.2484 14.0646 48.4981 12.4388 47.7373 10.813C47.6747 10.6671 47.6122 10.5316 47.5288 10.3961C47.3621 10.1251 47.112 10.0105 46.7993 10.1043C46.4762 10.1981 46.5804 10.4899 46.5804 10.6983C46.5804 12.6472 46.5492 14.6065 46.5909 16.5554C46.6013 17.2745 46.372 17.5142 45.6425 17.483C43.7874 17.3996 43.8603 17.8686 43.8707 15.6591C43.8707 13.4497 43.8707 11.2298 43.8707 9.02039L43.8812 9.03081Z" fill="#FF6D1D"/>
<path d="M30.3315 12.4819C30.3315 13.3677 30.3836 14.2536 30.321 15.129C30.2272 16.4526 29.4039 17.276 28.1116 17.4323C26.5483 17.6095 24.9954 17.5782 23.4426 17.3906C22.5984 17.2864 21.7334 16.3901 21.6187 15.4104C21.5249 14.5558 21.5458 13.7012 21.5041 12.8362C21.4833 12.4819 21.6604 12.263 21.9627 12.2109C22.4733 12.1171 22.984 12.0442 23.5051 12.0337C23.8907 12.0337 24.12 12.263 24.12 12.6903C24.12 13.2114 24.1408 13.7325 24.12 14.2536C24.0992 14.8372 24.3493 15.1395 24.9329 15.1499C25.6103 15.1603 26.2878 15.1916 26.9652 15.1499C27.4654 15.129 27.7781 14.8476 27.7781 14.2953C27.7781 13.2323 27.7989 12.1588 27.7677 11.0958C27.7364 10.2724 27.4133 9.98061 26.59 9.95977C25.9126 9.93893 25.2351 9.95977 24.5577 9.95977C22.8173 9.95977 21.7021 8.94885 21.6396 7.20839C21.5875 5.78058 21.5875 4.34236 21.6604 2.91456C21.7334 1.59097 22.6401 0.538361 23.9845 0.444564C25.3394 0.361189 26.6942 0.350767 28.0386 0.47583C29.1121 0.569627 29.925 1.4138 30.0918 2.6019C30.1856 3.2689 30.1751 3.95675 30.1751 4.62375C30.1751 5.17611 29.8833 5.49919 29.3101 5.50961C29.2893 5.50961 29.258 5.50961 29.2372 5.50961C28.1116 5.59299 27.5488 5.07189 27.5488 3.94633C27.5488 2.98751 27.3195 2.70612 26.3711 2.71654C24.193 2.73738 24.4014 2.5081 24.3284 4.66544C24.3076 5.3116 24.391 5.96818 24.3493 6.61434C24.3076 7.33345 24.6307 7.60442 25.2977 7.61484C26.0272 7.61484 26.7567 7.61484 27.4863 7.65653C29.5915 7.77117 30.3731 8.5945 30.3836 10.6789C30.3836 11.2729 30.3836 11.8774 30.3836 12.4715C30.3731 12.4715 30.3523 12.4715 30.3419 12.4715L30.3315 12.4819Z" fill="#174AE5"/>
<path d="M0.0364554 8.80155C0.0364554 6.89434 0.00518967 4.99755 0.0364554 3.10076C0.0677211 1.51663 1.17244 0.464018 2.767 0.432752C3.88214 0.42233 5.00771 0.505706 6.12285 0.411908C7.26926 0.318111 8.59285 1.65212 8.58242 2.75684C8.58242 3.48637 8.65538 4.21591 8.65538 4.93502C8.65538 5.46654 8.37399 5.71666 7.83205 5.75835C6.02906 5.89383 6.02906 5.90426 5.99779 4.13253C5.97695 2.89232 5.83104 2.736 4.60125 2.71515C4.37197 2.71515 4.13227 2.71515 3.90299 2.71515C3.11092 2.69431 2.75658 3.12161 2.74615 3.86156C2.73573 4.45561 2.74615 5.06008 2.74615 5.65413C2.75658 8.46805 2.767 11.2715 2.77742 14.0855C2.77742 14.8775 3.03797 15.1381 3.85088 15.1693C3.90299 15.1693 3.9551 15.1693 4.0072 15.1693C6.25834 15.2006 5.94568 14.9505 5.96652 13.2517C5.96652 12.8661 5.75809 12.2929 6.24792 12.1366C6.92534 11.9177 7.6653 11.7822 8.38441 11.9907C8.6658 12.074 8.62411 12.3554 8.61369 12.5951C8.56158 13.5331 8.54074 14.4606 8.45736 15.3986C8.36356 16.545 7.52981 17.3371 6.39382 17.4622C5.17446 17.5976 3.9551 17.6289 2.73573 17.5038C0.922318 17.3058 0.0364554 16.3783 0.0156116 14.4919C-0.00523225 12.5951 0.0156116 10.6879 0.0156116 8.79113H0.0364554V8.80155Z" fill="#174AE5"/>
</g>
<defs>
<clipPath id="clip0_1_19460">
<rect width="85.9912" height="17.2795" fill="white" transform="translate(0.00439453 0.360352)"/>
</clipPath>
</defs>
</svg>
