<svg width="25" height="24" viewBox="0 0 25 24" fill="none" xmlns="http://www.w3.org/2000/svg">
<mask id="mask0_1_19474" style="mask-type:alpha" maskUnits="userSpaceOnUse" x="0" y="-1" width="25" height="26">
<rect x="0.0770264" y="-0.00341797" width="24.0066" height="24.0066" fill="#D9D9D9"/>
</mask>
<g mask="url(#mask0_1_19474)">
<path d="M4.07861 2.89746H20.0825C20.392 2.89746 20.6346 2.99739 20.8589 3.22168C21.0831 3.44592 21.1831 3.68864 21.1831 3.99805V16.001C21.1831 16.3104 21.0832 16.5531 20.8589 16.7773C20.6346 17.0016 20.392 17.1016 20.0825 17.1016H5.70557L2.97803 19.8291V3.99805C2.97803 3.68855 3.07795 3.44597 3.30225 3.22168C3.52654 2.99739 3.76912 2.89746 4.07861 2.89746Z" fill="#262626" stroke="#262626" stroke-width="1.8005"/>
<path d="M8.28185 7.8754H9.30813V11.9985H8.28185V10.3541H6.59538V11.9985H5.5691V7.8754H6.59538V9.43583H8.28185V7.8754ZM11.5166 11.2483C11.7567 11.2483 12.0327 11.1463 12.2188 10.9843L12.819 11.5904C12.5429 11.8725 12.0087 12.0706 11.5466 12.0706C10.5863 12.0706 9.87815 11.3924 9.87815 10.4381C9.87815 9.49585 10.5623 8.82366 11.4986 8.82366C12.4829 8.82366 13.059 9.54386 13.059 10.7262H10.8444C10.9404 11.0383 11.1865 11.2483 11.5166 11.2483ZM11.5166 9.63989C11.2105 9.63989 10.9644 9.81994 10.8564 10.108H12.1168C12.0327 9.82594 11.8227 9.63989 11.5166 9.63989ZM13.5979 11.9985V7.80338H14.6182V11.9985H13.5979ZM17.3495 8.82366C18.1837 8.82366 18.7719 9.49585 18.7719 10.4441C18.7719 11.3984 18.1837 12.0706 17.3495 12.0706C16.9354 12.0706 16.5813 11.8965 16.3352 11.6024V13.0308H15.3149V8.89568H16.3352V9.29179C16.5813 8.99771 16.9354 8.82366 17.3495 8.82366ZM17.0434 11.2243C17.4815 11.2243 17.7936 10.9002 17.7936 10.4441C17.7936 9.99398 17.4815 9.66989 17.0434 9.66989C16.6233 9.66989 16.3352 9.99398 16.3352 10.4441C16.3352 10.9002 16.6233 11.2243 17.0434 11.2243Z" fill="white"/>
</g>
</svg>
