<svg width="17" height="20" viewBox="0 0 17 20" fill="none" xmlns="http://www.w3.org/2000/svg">
<path d="M0.0892334 17.0017V15.0012H2.08978V7.99927C2.08978 6.61556 2.50656 5.38605 3.34013 4.31076C4.17369 3.23546 5.25732 2.5311 6.59102 2.19768V1.49748C6.59102 1.0807 6.73689 0.726438 7.02864 0.434691C7.32039 0.142944 7.67465 -0.00292969 8.09143 -0.00292969C8.50821 -0.00292969 8.86248 0.142944 9.15423 0.434691C9.44597 0.726438 9.59185 1.0807 9.59185 1.49748V2.19768C10.9255 2.5311 12.0092 3.23546 12.8427 4.31076C13.6763 5.38605 14.0931 6.61556 14.0931 7.99927V15.0012H16.0936V17.0017H0.0892334ZM8.09143 20.0026C7.54128 20.0026 7.07032 19.8067 6.67854 19.4149C6.28677 19.0231 6.09088 18.5522 6.09088 18.002H10.092C10.092 18.5522 9.8961 19.0231 9.50432 19.4149C9.11255 19.8067 8.64158 20.0026 8.09143 20.0026ZM4.09033 15.0012H12.0925V7.99927C12.0925 6.89897 11.7008 5.95704 10.9172 5.17349C10.1337 4.38995 9.19174 3.99817 8.09143 3.99817C6.99113 3.99817 6.04921 4.38995 5.26566 5.17349C4.48211 5.95704 4.09033 6.89897 4.09033 7.99927V15.0012Z" fill="#262626"/>
</svg>
