<svg width="25" height="24" viewBox="0 0 25 24" fill="none" xmlns="http://www.w3.org/2000/svg">
<g clip-path="url(#clip0_669_6309)">
<g clip-path="url(#clip1_669_6309)">
<path d="M15.7539 14H14.9639L14.6839 13.73C15.6639 12.59 16.2539 11.11 16.2539 9.5C16.2539 5.91 13.3439 3 9.75391 3C6.16391 3 3.25391 5.91 3.25391 9.5C3.25391 13.09 6.16391 16 9.75391 16C11.3639 16 12.8439 15.41 13.9839 14.43L14.2539 14.71V15.5L19.2539 20.49L20.7439 19L15.7539 14ZM9.75391 14C7.26391 14 5.25391 11.99 5.25391 9.5C5.25391 7.01 7.26391 5 9.75391 5C12.2439 5 14.2539 7.01 14.2539 9.5C14.2539 11.99 12.2439 14 9.75391 14Z" fill="#898A8D"/>
</g>
</g>
<defs>
<clipPath id="clip0_669_6309">
<rect width="24" height="24" fill="white" transform="translate(0.253906)"/>
</clipPath>
<clipPath id="clip1_669_6309">
<rect width="24" height="24" fill="white" transform="translate(0.253906)"/>
</clipPath>
</defs>
</svg>
